<?xml version="1.0" encoding="utf-8"?>
<!-- Generator: Adobe Illustrator 21.1.0, SVG Export Plug-In . SVG Version: 6.00 Build 0)  -->
<svg version="1.1" id="Lager_1" xmlns="http://www.w3.org/2000/svg" xmlns:xlink="http://www.w3.org/1999/xlink" x="0px" y="0px"
	 viewBox="0 0 257 251.3" style="enable-background:new 0 0 257 251.3;" xml:space="preserve">
<style type="text/css">
	.st0{fill:#3B5B71;}
</style>
<g>
	<polygon class="st0" points="210.8,185.5 213,205.1 222.7,212 232.4,205.1 234.6,185.5 222.7,181.5 	"/>
	<path class="st0" d="M235.4,184.5l-12.5-4.3h-0.4l-12.5,4.3l-0.5,0.2l0.1,0.5l2.2,20.4l0,0.3l0.2,0.2l10.3,7.2l0.4,0.3l0.3-0.3
		l10.3-7.2l0.2-0.2l0.1-0.3l2.2-20.4l0.1-0.5L235.4,184.5z M233,205.5l-10.3,7.2l-10.3-7.2l-2.2-20.4l12.5-4.3l12.5,4.3L233,205.5z"
		/>
</g>
<path class="st0" d="M237.7,171.1c5.7-14.3,8.7-29.4,8.7-44.9c0-66.4-54-120.4-120.4-120.4C59.7,5.8,5.7,59.8,5.7,126.1
	s54,120.4,120.4,120.4c28.6,0,56.2-10.2,78-28.7c4.9,3.9,11.1,6.2,17.8,6.2c15.9,0,28.9-12.9,28.9-28.9
	C250.6,185.1,245.5,176.2,237.7,171.1z M126,241.8c-27.9,0-53.5-9.9-73.5-26.5c9.5-23.5,28.5-41.1,51.5-48.3l2.1-0.5v-9l-1.8-0.7
	c-16.8-8.5-27.4-25.4-27.4-44.1c0-27.2,22.1-49.4,49.3-49.4c27.2,0,49.4,22.2,49.4,49.4c0,18.8-11,35.7-27.7,44.1l-1.8,0.7v9
	l2.2,0.5c19.3,6.1,36.3,20,46.6,38.5c1.3,3.4,3.4,6.4,5.8,9C179.6,232.1,153.3,241.8,126,241.8z M222.1,219.6c-9.7,0-18-5.6-22-13.7
	c0,0,0,0,0,0l0,0c-0.3-0.7-0.6-1.4-0.9-2.2c0-0.1-0.1-0.1-0.1-0.2c-1-2.6-1.6-5.5-1.6-8.5c0-10.4,6.6-19.3,15.9-22.7
	c2.7-1,5.6-1.6,8.6-1.6c13.5,0,24.4,10.9,24.4,24.4C246.5,208.7,235.6,219.6,222.1,219.6z"/>
</svg>
