<?xml version="1.0" encoding="utf-8"?>
<!-- Generator: Adobe Illustrator 21.1.0, SVG Export Plug-In . SVG Version: 6.00 Build 0)  -->
<svg version="1.1" id="Lager_1" xmlns="http://www.w3.org/2000/svg" xmlns:xlink="http://www.w3.org/1999/xlink" x="0px" y="0px"
	 viewBox="0 0 646.3 251.3" style="enable-background:new 0 0 646.3 251.3;" xml:space="preserve">
<style type="text/css">
	.st0{fill:#3B5B71;}
</style>
<g>
	<path class="st0" d="M328,81.8c0,2.2-0.8,4.1-2.4,5.6c-1.6,1.5-3.5,2.3-5.7,2.3c-2.2,0-4.1-0.8-5.7-2.3c-1.6-1.5-2.4-3.4-2.4-5.6
		c0-2.2,0.8-4.1,2.4-5.7c1.6-1.6,3.5-2.4,5.7-2.4c2.2,0,4.1,0.8,5.7,2.4C327.2,77.7,328,79.6,328,81.8z M325,111l-0.3,63.9
		c0,3.6-1.8,5.3-5.3,5.3c-3.5,0-5.3-1.8-5.3-5.4l0.3-63.9c0-3.5,1.8-5.3,5.3-5.3C323.3,105.7,325.1,107.5,325,111z"/>
	<path class="st0" d="M436.7,127.5c-0.1,14.7-5.3,27.2-15.8,37.6c-10.4,10.4-23,15.5-37.6,15.4l-31.9-0.1c-1.4,0-2.7-0.5-3.7-1.6
		c-1.1-1.1-1.6-2.3-1.6-3.7l0.4-95.8c0-1.4,0.5-2.7,1.6-3.7c1.1-1.1,2.3-1.6,3.7-1.6l31.9,0.1c14.6,0.1,27.1,5.3,37.5,15.8
		S436.8,112.8,436.7,127.5z M426.1,127.4c0.1-11.7-4.1-21.8-12.4-30.1s-18.3-12.6-30-12.6l-26.6-0.1l-0.4,85.3l26.6,0.1
		c11.7,0.1,21.8-4.1,30.2-12.4C421.8,149.3,426.1,139.2,426.1,127.4z"/>
	<path class="st0" d="M490.5,157.1c0,6.6-2.4,12.2-7.1,16.9c-4.7,4.7-10.4,7-16.9,7c-4.9,0-9.5-1.5-13.6-4.3
		c-4.2-2.9-7.1-6.6-8.7-11.1c-0.3-0.8-0.4-1.5-0.4-2.1c0-1.5,0.6-2.7,1.7-3.7c1.1-1,2.4-1.5,3.9-1.5c1.7,0,3.2,1.1,4.6,3.2
		c2.2,3.3,3.5,5.3,4.1,5.8c2.1,2.1,5,3.2,8.6,3.2c3.7,0,6.8-1.3,9.4-3.9c2.6-2.6,3.9-5.7,3.9-9.4c0-8.1-4.5-12.6-13.6-13.4
		c-5.5-0.5-9.9-2.3-13.3-5.5c-3.6-3.4-5.4-7.8-5.4-13.2c0-5.1,1.9-9.5,5.6-13.1c3.7-3.6,8.1-5.4,13.2-5.4c7.4,0,12.8,3.1,16,9.3
		c0.5,1,0.8,2,0.8,2.8c0,1.5-0.6,2.7-1.7,3.7s-2.4,1.5-3.9,1.5c-1.5,0-3.1-1.1-4.9-3.4c-1.8-2.3-3.9-3.4-6.4-3.4
		c-2.2,0-4.1,0.8-5.7,2.4c-1.6,1.6-2.4,3.5-2.4,5.6c0,4.8,2.8,7.5,8.3,8.1c7.1,0.7,12.8,3.1,17.1,7.1
		C488.3,144.4,490.5,150.1,490.5,157.1z"/>
	<path class="st0" d="M567.8,160c0,0.8-0.3,1.8-0.7,2.8c-3,5.6-7.5,10.1-13.6,13.5c-6,3.4-12.3,5-18.8,5c-10.3,0-19-3.7-26.3-11
		s-10.9-16.1-10.8-26.4c0-10.3,3.7-19,11.1-26.3c7.3-7.3,16.1-10.9,26.4-10.8c3.7,0,7.5,0.7,11.5,2.1c4.5,1.6,9,4.1,13.3,7.5
		c5.4,4.3,8.1,8.3,8.1,12.1c0,1.9-0.9,3.3-2.7,4.3l-50.4,28.8c5.2,6,11.9,9.1,19.9,9.1c8.4,0,15.1-3,20.1-9.1
		c0.6-0.9,1.7-2.3,3.1-4.1c1.4-1.8,2.9-2.7,4.4-2.7c1.5,0,2.8,0.5,3.9,1.6C567.3,157.3,567.8,158.5,567.8,160z M554.9,126.4
		c-5.3-6.1-11.9-9.1-19.9-9.1c-7.3,0-13.6,2.6-18.8,7.8c-5.2,5.2-7.9,11.5-7.9,18.7c0,2.9,0.4,5.8,1.3,8.5L554.9,126.4z"/>
	<path class="st0" d="M640.4,121.8c0,1.5-0.6,2.8-1.7,3.9c-1.1,1.1-2.4,1.6-3.9,1.6c-0.4,0-3.1-1.6-7.9-4.8
		c-4.8-3.2-9.7-4.8-14.6-4.8c-7.3,0-13.6,2.6-18.8,7.8c-5.2,5.2-7.9,11.5-7.9,18.7c0,7.3,2.5,13.6,7.7,18.9
		c5.2,5.3,11.4,7.9,18.8,7.9c4.9,0,9.7-1.5,14.6-4.7c4.8-3.1,7.5-4.7,8-4.7c1.4,0,2.7,0.6,3.8,1.7c1.1,1.1,1.6,2.4,1.6,3.8
		c0,1.2-0.5,2.4-1.6,3.7c-2.8,3.3-6.9,6-12,7.9c-4.8,1.9-9.6,2.8-14.3,2.8c-10.3,0-19-3.7-26.3-11c-7.3-7.3-10.9-16.1-10.8-26.4
		c0-10.3,3.7-19,11.1-26.3c7.3-7.2,16.1-10.9,26.4-10.8c4.7,0,9.4,1,14.3,2.9c5.2,2.1,9.2,4.8,12,8.1
		C639.8,119.4,640.4,120.6,640.4,121.8z"/>
</g>
<g>
	<path class="st0" d="M328.3,212.5c0,2.2-0.8,4.1-2.4,5.7c-1.6,1.6-3.5,2.4-5.7,2.4c-1.4,0-2.8-0.4-4-1.1c-1.3-0.7-2.3-1.7-3-2.9
		c-0.1-0.3-0.2-0.5-0.2-0.7c0-0.4,0.1-0.7,0.4-0.9s0.6-0.4,1-0.4c0.4,0,0.8,0.2,1.1,0.7c0.1,0.2,0.4,0.5,0.6,0.9
		c1,1.2,2.4,1.8,4,1.8c1.5,0,2.8-0.5,3.8-1.6c1.1-1.1,1.6-2.3,1.6-3.8s-0.5-2.8-1.6-3.8c-1.1-1.1-2.3-1.6-3.8-1.6
		c-1.9,0-3.4-0.7-4.8-2c-1.3-1.3-2-2.9-2-4.8s0.7-3.4,2-4.8c1.3-1.3,2.9-2,4.8-2c1.2,0,2.3,0.3,3.4,0.9c1.1,0.6,1.9,1.4,2.4,2.4
		c0.1,0.3,0.2,0.5,0.2,0.7c0,0.4-0.1,0.7-0.4,0.9c-0.3,0.3-0.6,0.4-1,0.4c-0.3,0-0.9-0.5-1.7-1.4c-0.8-0.9-1.8-1.4-2.9-1.4
		c-1.1,0-2.1,0.4-2.9,1.2c-0.8,0.8-1.2,1.7-1.2,2.9c0,1.1,0.4,2.1,1.2,2.9c0.8,0.8,1.7,1.2,2.9,1.2c2.2,0,4.1,0.8,5.7,2.4
		C327.5,208.4,328.3,210.3,328.3,212.5z"/>
	<path class="st0" d="M374.6,207.1c0,3.7-1.3,6.9-4,9.5s-5.8,4-9.5,4s-6.9-1.3-9.5-4s-4-5.8-4-9.5c0-3.7,1.3-6.9,4-9.5s5.8-4,9.5-4
		s6.9,1.3,9.5,4S374.6,203.4,374.6,207.1z M371.9,207.1c0-3-1.1-5.5-3.2-7.6s-4.7-3.2-7.6-3.2c-3,0-5.5,1.1-7.6,3.2
		c-2.1,2.1-3.2,4.7-3.2,7.6c0,3,1.1,5.5,3.2,7.6c2.1,2.1,4.7,3.2,7.6,3.2c3,0,5.5-1.1,7.6-3.2S371.9,210.1,371.9,207.1z"/>
	<path class="st0" d="M411.8,219.3c0,0.9-0.4,1.4-1.3,1.4H397c-0.4,0-0.7-0.1-0.9-0.4c-0.3-0.3-0.4-0.6-0.4-0.9V195
		c0-0.9,0.4-1.4,1.3-1.4c0.9,0,1.3,0.5,1.3,1.4v22.9h12.1C411.4,217.9,411.8,218.4,411.8,219.3z"/>
	<path class="st0" d="M450.9,211.2c0,2.6-0.9,4.8-2.8,6.7s-4.1,2.8-6.7,2.8c-2.6,0-4.8-0.9-6.7-2.8s-2.8-4.1-2.8-6.7V195
		c0-0.9,0.5-1.4,1.4-1.4c0.9,0,1.3,0.5,1.3,1.4v16.2c0,1.9,0.7,3.4,2,4.8c1.3,1.3,2.9,2,4.7,2c1.9,0,3.4-0.7,4.8-2s2-2.9,2-4.8V195
		c0-0.9,0.4-1.4,1.3-1.4c0.9,0,1.4,0.5,1.4,1.4V211.2z"/>
	<path class="st0" d="M490,195c0,0.9-0.5,1.3-1.4,1.3h-6.7v22.9c0,0.9-0.4,1.4-1.3,1.4s-1.3-0.5-1.3-1.4v-22.9h-6.7
		c-0.9,0-1.4-0.4-1.4-1.3c0-0.9,0.5-1.4,1.4-1.4h16.2C489.5,193.7,490,194.1,490,195z"/>
	<path class="st0" d="M512.9,219.3c0,0.9-0.4,1.4-1.3,1.4c-0.9,0-1.3-0.5-1.3-1.4V195c0-0.9,0.4-1.4,1.3-1.4c0.9,0,1.3,0.5,1.3,1.4
		V219.3z"/>
	<path class="st0" d="M561,207.1c0,3.7-1.3,6.9-4,9.5s-5.8,4-9.5,4s-6.9-1.3-9.5-4s-4-5.8-4-9.5c0-3.7,1.3-6.9,4-9.5s5.8-4,9.5-4
		s6.9,1.3,9.5,4S561,203.4,561,207.1z M558.3,207.1c0-3-1.1-5.5-3.2-7.6s-4.7-3.2-7.6-3.2c-3,0-5.5,1.1-7.6,3.2
		c-2.1,2.1-3.2,4.7-3.2,7.6c0,3,1.1,5.5,3.2,7.6c2.1,2.1,4.7,3.2,7.6,3.2c3,0,5.5-1.1,7.6-3.2S558.3,210.1,558.3,207.1z"/>
	<path class="st0" d="M603.6,219.3c0,0.9-0.5,1.4-1.4,1.4c-0.4,0-0.8-0.2-1.2-0.7l-16.3-21v20.3c0,0.9-0.4,1.4-1.3,1.4
		c-0.9,0-1.3-0.5-1.3-1.4V195c0-0.9,0.5-1.4,1.4-1.4c0.4,0,0.8,0.2,1.2,0.7l16.3,21V195c0-0.9,0.4-1.4,1.3-1.4
		c0.9,0,1.4,0.5,1.4,1.4V219.3z"/>
	<path class="st0" d="M640,212.5c0,2.2-0.8,4.1-2.4,5.7s-3.5,2.4-5.7,2.4c-1.4,0-2.8-0.4-4-1.1c-1.3-0.7-2.3-1.7-3-2.9
		c-0.1-0.3-0.2-0.5-0.2-0.7c0-0.4,0.1-0.7,0.4-0.9s0.6-0.4,1-0.4c0.4,0,0.8,0.2,1.1,0.7c0.1,0.2,0.4,0.5,0.6,0.9
		c1,1.2,2.4,1.8,4,1.8c1.5,0,2.8-0.5,3.8-1.6c1.1-1.1,1.6-2.3,1.6-3.8s-0.5-2.8-1.6-3.8s-2.3-1.6-3.8-1.6c-1.9,0-3.4-0.7-4.8-2
		c-1.3-1.3-2-2.9-2-4.8s0.7-3.4,2-4.8c1.3-1.3,2.9-2,4.8-2c1.2,0,2.3,0.3,3.4,0.9c1.1,0.6,1.9,1.4,2.4,2.4c0.1,0.3,0.2,0.5,0.2,0.7
		c0,0.4-0.1,0.7-0.4,0.9c-0.3,0.3-0.6,0.4-1,0.4c-0.3,0-0.9-0.5-1.7-1.4c-0.8-0.9-1.8-1.4-2.9-1.4c-1.1,0-2.1,0.4-2.9,1.2
		c-0.8,0.8-1.2,1.7-1.2,2.9c0,1.1,0.4,2.1,1.2,2.9c0.8,0.8,1.7,1.2,2.9,1.2c2.2,0,4.1,0.8,5.7,2.4S640,210.3,640,212.5z"/>
</g>
<g>
	<polygon class="st0" points="210.8,185.5 213,205.1 222.7,212 232.4,205.1 234.6,185.5 222.7,181.5 	"/>
	<path class="st0" d="M235.4,184.5l-12.5-4.3h-0.4l-12.5,4.3l-0.5,0.2l0.1,0.5l2.2,20.4l0,0.3l0.2,0.2l10.3,7.2l0.4,0.3l0.3-0.3
		l10.3-7.2l0.2-0.2l0.1-0.3l2.2-20.4l0.1-0.5L235.4,184.5z M233,205.5l-10.3,7.2l-10.3-7.2l-2.2-20.4l12.5-4.3l12.5,4.3L233,205.5z"
		/>
</g>
<path class="st0" d="M237.7,171.1c5.7-14.3,8.7-29.4,8.7-44.9c0-66.4-54-120.4-120.4-120.4C59.7,5.8,5.7,59.8,5.7,126.1
	s54,120.4,120.4,120.4c28.6,0,56.2-10.2,78-28.7c4.9,3.9,11.1,6.2,17.8,6.2c15.9,0,28.9-12.9,28.9-28.9
	C250.6,185.1,245.5,176.2,237.7,171.1z M126,241.8c-27.9,0-53.5-9.9-73.5-26.5c9.5-23.5,28.5-41.1,51.5-48.3l2.1-0.5v-9l-1.8-0.7
	c-16.8-8.5-27.4-25.4-27.4-44.1c0-27.2,22.1-49.4,49.3-49.4c27.2,0,49.4,22.2,49.4,49.4c0,18.8-11,35.7-27.7,44.1l-1.8,0.7v9
	l2.2,0.5c19.3,6.1,36.3,20,46.6,38.5c1.3,3.4,3.4,6.4,5.8,9C179.6,232.1,153.3,241.8,126,241.8z M222.1,219.6c-9.7,0-18-5.6-22-13.7
	c0,0,0,0,0,0l0,0c-0.3-0.7-0.6-1.4-0.9-2.2c0-0.1-0.1-0.1-0.1-0.2c-1-2.6-1.6-5.5-1.6-8.5c0-10.4,6.6-19.3,15.9-22.7
	c2.7-1,5.6-1.6,8.6-1.6c13.5,0,24.4,10.9,24.4,24.4C246.5,208.7,235.6,219.6,222.1,219.6z"/>
</svg>
