<?xml version="1.0" standalone="no"?>
<!DOCTYPE svg PUBLIC "-//W3C//DTD SVG 20010904//EN"
 "http://www.w3.org/TR/2001/REC-SVG-20010904/DTD/svg10.dtd">
<svg version="1.0" xmlns="http://www.w3.org/2000/svg"
 width="257.000000pt" height="257.000000pt" viewBox="0 0 257.000000 257.000000"
 preserveAspectRatio="xMidYMid meet">
<metadata>
Created by potrace 1.11, written by Peter Selinger 2001-2013
</metadata>
<g transform="translate(0.000000,257.000000) scale(0.100000,-0.100000)"
fill="#000000" stroke="none">
<path d="M1168 2485 c-2 -1 -29 -5 -61 -9 -475 -50 -903 -432 -1017 -908 -118
-492 76 -995 495 -1284 150 -103 360 -180 545 -200 51 -5 231 -5 260 0 14 2
43 7 66 10 164 21 374 109 522 221 l60 45 51 -26 c115 -57 244 -33 337 62 111
114 109 287 -5 401 l-41 41 19 54 c31 84 46 150 58 248 14 128 4 319 -21 404
-8 25 -13 46 -11 46 2 0 -7 30 -20 68 -144 417 -477 714 -903 803 -77 16 -323
34 -334 24z m254 -603 c164 -59 292 -206 324 -374 37 -198 -69 -421 -247 -519
-45 -25 -44 -23 -40 -101 1 -12 4 -19 7 -16 13 13 172 -65 247 -121 94 -70
179 -171 246 -291 8 -14 20 -34 28 -46 12 -19 9 -24 -50 -65 -321 -230 -709
-284 -1080 -148 -86 31 -213 100 -282 152 -22 17 -42 32 -44 34 -8 5 34 88 80
158 52 80 140 168 220 223 64 44 157 90 199 98 30 6 32 12 32 64 0 11 0 24 -1
30 0 5 -20 19 -43 31 -66 33 -159 134 -195 209 -43 92 -56 158 -50 249 15 213
162 390 368 445 73 19 208 14 281 -12z m928 -1087 c159 -100 147 -335 -22
-419 -112 -56 -235 -22 -306 83 -52 77 -57 154 -16 239 29 60 75 99 145 122
61 21 142 11 199 -25z"/>
<path d="M2192 733 c-6 -2 -10 -8 -7 -13 3 -4 -4 -6 -15 -3 -11 3 -20 0 -20
-6 0 -5 -7 -8 -16 -4 -10 4 -22 0 -28 -9 -12 -17 -9 -101 3 -93 4 2 6 -19 3
-47 -3 -41 -2 -49 9 -42 12 6 12 5 1 -8 -11 -14 -9 -19 14 -37 14 -11 31 -18
38 -14 6 3 8 3 4 -2 -8 -8 33 -45 50 -45 6 0 14 5 18 12 5 7 2 8 -7 3 -8 -5
-11 -4 -6 1 5 5 14 9 20 9 27 0 87 50 85 70 -1 11 1 25 5 32 4 6 3 14 -3 18
-5 3 -10 12 -10 18 0 8 3 8 9 -1 5 -9 11 12 15 54 5 50 4 69 -6 75 -19 13 -30
11 -23 -3 4 -7 0 -5 -9 6 -9 11 -22 16 -31 12 -9 -3 -14 -2 -11 3 10 15 -53
26 -82 14z m155 -85 c-3 -7 -5 -2 -5 12 0 14 2 19 5 13 2 -7 2 -19 0 -25z"/>
</g>
</svg>
